@startuml
package A{
class RestfulControllerA
class HtmlRendererA
class UsecaseA
class DomainA
interface OutputPortA
interface DomainRepositoryA

RestfulControllerA -down-> UsecaseA
HtmlRendererA -down-> UsecaseA
UsecaseA -down-> DomainA
UsecaseA -down-> OutputPortA
UsecaseA -down-> DomainRepositoryA
DomainRepositoryA <|-down- MysqlAdapterA
DomainRepositoryA <|-down- DynamoAdapterA
}
package B{
class RestfulController
class HtmlRenderer
class Usecase
class Domain
interface OutputPort
interface DomainRepository

RestfulController -down-> Usecase
HtmlRenderer -down-> Usecase
Usecase -down-> Domain
Usecase -down-> OutputPort
Usecase -down-> DomainRepository
DomainRepository <|-down- MysqlAdapter
DomainRepository <|-down- DynamoAdapter
}
@enduml